<svg id="close_icon" xmlns="http://www.w3.org/2000/svg" width="24" height="24" viewBox="0 0 24 24">
  <rect id="Rectangle_29047" data-name="Rectangle 29047" width="24" height="24" fill="none"/>
  <path id="Path_89687" data-name="Path 89687" d="M12,2A10,10,0,1,0,22,12,10.016,10.016,0,0,0,12,2Zm3.36,12.3a.754.754,0,0,1,0,1.06.748.748,0,0,1-1.06,0L12,13.06l-2.3,2.3a.748.748,0,0,1-1.06,0,.754.754,0,0,1,0-1.06l2.3-2.3L8.64,9.7A.75.75,0,0,1,9.7,8.64l2.3,2.3,2.3-2.3A.75.75,0,0,1,15.36,9.7L13.06,12Z" fill="#e42268"/>
</svg>
