<svg xmlns="http://www.w3.org/2000/svg" xmlns:xlink="http://www.w3.org/1999/xlink" width="16" height="16" viewBox="0 0 16 16">
  <defs>
    <clipPath id="clip-path">
      <rect id="Rectangle_29027" data-name="Rectangle 29027" width="16" height="16" fill="#01e0ad"/>
    </clipPath>
  </defs>
  <g id="copy" clip-path="url(#clip-path)">
    <path id="Path_89634" data-name="Path 89634" d="M56.333,9a23.1,23.1,0,0,1,2.818.173A2.636,2.636,0,0,1,61.479,11.4a23.038,23.038,0,0,1,0,5.875,2.636,2.636,0,0,1-2.327,2.223,23.09,23.09,0,0,1-2.818.173,23.088,23.088,0,0,1-2.818-.173,2.637,2.637,0,0,1-2.327-2.223,23.047,23.047,0,0,1,0-5.875,2.637,2.637,0,0,1,2.327-2.223A23.1,23.1,0,0,1,56.333,9ZM55,6.336l.665,0a.666.666,0,0,1,0,1.333l-.669,0c-.752,0-1.513.031-2.268.094a3.261,3.261,0,0,0-2.97,2.985c-.061.747-.1,1.5-.1,2.249A.666.666,0,1,1,48.333,13c0-.783.036-1.567.1-2.349A4.581,4.581,0,0,1,52.56,6.439Q53.78,6.336,55,6.336Z" transform="translate(-47 -5)" fill="#01e0ad" fill-rule="evenodd"/>
  </g>
</svg>
