<svg xmlns="http://www.w3.org/2000/svg" xmlns:xlink="http://www.w3.org/1999/xlink" width="32" height="32" viewBox="0 0 32 32">
  <defs>
    <clipPath id="clip-path">
      <rect id="Rectangle_29023" data-name="Rectangle 29023" width="25.6" height="25.6" fill="#ff5894"/>
    </clipPath>
  </defs>
  <g id="timer" transform="translate(-3 -3)">
    <rect id="Rectangle_29022" data-name="Rectangle 29022" width="32" height="32" rx="10" transform="translate(3 3)" fill="none"/>
    <g id="Group_84315" data-name="Group 84315" transform="translate(6.2 6.2)" clip-path="url(#clip-path)">
      <path id="Path_89629" data-name="Path 89629" d="M18.818,6a.679.679,0,0,1,.669.563l.009.108V8.71a.676.676,0,0,1-.568.662l-.11.009h-.374a.678.678,0,0,0-.669.561l-.009.108v.577a9.017,9.017,0,0,1,2.016.562l.379.165,1.015-1.416a.567.567,0,0,1,.7-.184l.088.05,1.492,1.046a.552.552,0,0,1,.186.689l-.051.087L22.6,13.01a8.872,8.872,0,0,1,2.783,6.449,9.041,9.041,0,0,1-18.08,0,8.858,8.858,0,0,1,2.427-6.091l.23-.236L8.943,11.718A.553.553,0,0,1,9,11.006l.077-.065L10.57,9.9a.567.567,0,0,1,.718.056l.066.076,1,1.4A9,9,0,0,1,14.53,10.7l.384-.069v-.577a.675.675,0,0,0-.568-.661l-.11-.009h-.374a.679.679,0,0,1-.669-.563l-.009-.108V6.671a.676.676,0,0,1,.568-.662L13.862,6ZM16.34,12.662a6.8,6.8,0,1,0,6.87,6.8A6.842,6.842,0,0,0,16.34,12.662Zm.325,1.739a5.074,5.074,0,0,1,4.751,4.753l.008.24v.256a4.973,4.973,0,0,1-4.846,4.828h-.283a5.075,5.075,0,0,1-5.039-4.716.317.317,0,0,1,.319-.332l4.713,0a.044.044,0,0,0,.048-.047l0-4.672h0A.316.316,0,0,1,16.665,14.4Z" transform="translate(-3.62 -4.4)" fill="#ff5894" fill-rule="evenodd"/>
    </g>
  </g>
</svg>
